<mxfile host="app.diagrams.net" modified="2024-05-13T00:59:18.698Z" agent="Mozilla/5.0 (X11; Linux x86_64; rv:125.0) Gecko/20100101 Firefox/125.0" version="24.4.0" etag="5iEllMKIdMOykLzwGn6N" type="github">
  <diagram name="Page-1" id="ne5QBDqyXxMbhLqf9HTo">
    <mxGraphModel>
      <root>
        <mxCell id="0" />
        <mxCell id="1" parent="0" />
      </root>
    </mxGraphModel>
  </diagram>
</mxfile>
